<svg width="256" height="256" viewBox="168 198 148 164" fill="none" xmlns="http://www.w3.org/2000/svg">
<path d="M310 341.907C310 346.929 305.561 351 300.085 351L239.915 335C234.439 335 230 330.929 230 325.907L230 212.093C230 207.071 234.439 203 239.915 203L300.085 216C305.561 216 310 220.071 310 225.093L310 341.907Z" fill="#EA4335"/>
<path d="M283.587 236.458L209.383 217.057C208.027 216.703 206.737 217.819 206.877 219.213C210.162 251.935 207.587 273.052 204.686 284.935C201.383 298.467 198.571 315.252 173.291 333.586C171.869 334.617 172.289 336.891 174.004 337.274L250.92 354.461C251.508 354.592 252.128 354.45 252.596 354.072C271.063 339.134 277.452 320.174 280.928 302.404C284.044 286.47 285.084 266.23 285.08 238.395C285.08 237.487 284.466 236.687 283.587 236.458Z" stroke="#ffffff" stroke-width="8"/>
</svg>
